<?xml version="1.0" encoding="utf-8"?>
<!-- Generator: Adobe Illustrator 24.0.1, SVG Export Plug-In . SVG Version: 6.00 Build 0)  -->
<svg version="1.1" id="svg-d01e" xmlns="http://www.w3.org/2000/svg" xmlns:xlink="http://www.w3.org/1999/xlink" x="0px" y="0px"
	 viewBox="0 0 512 512" style="enable-background:new 0 0 512 512;" xml:space="preserve">
<path d="M201,12.7V197h267V12.7c0-7-5.7-12.7-12.7-12.7H213.7C206.7,0,201,5.7,201,12.7z M264.9,45.8h70.3c8.3,0,15,6.7,15,15
	s-6.7,15-15,15h-70.3c-8.3,0-15-6.7-15-15S256.6,45.8,264.9,45.8z M264.9,121h139.2c8.3,0,15,6.7,15,15s-6.7,15-15,15H264.9
	c-8.3,0-15-6.7-15-15S256.6,121,264.9,121z" fill="#333"/>
<path d="M472,227H197c-22.1,0-40,17.9-40,40v205c0,22.1,17.9,40,40,40h275c22.1,0,40-17.9,40-40V267C512,244.9,494.1,227,472,227z
	 M264.5,444.5h-20c-8.3,0-15-6.7-15-15s6.7-15,15-15h20c8.3,0,15,6.7,15,15S272.8,444.5,264.5,444.5z M264.5,384.5h-20
	c-8.3,0-15-6.7-15-15s6.7-15,15-15h20c8.3,0,15,6.7,15,15S272.8,384.5,264.5,384.5z M264.5,324.5h-20c-8.3,0-15-6.7-15-15
	s6.7-15,15-15h20c8.3,0,15,6.7,15,15S272.8,324.5,264.5,324.5z M344.5,444.5h-20c-8.3,0-15-6.7-15-15s6.7-15,15-15h20
	c8.3,0,15,6.7,15,15S352.8,444.5,344.5,444.5z M344.5,384.5h-20c-8.3,0-15-6.7-15-15s6.7-15,15-15h20c8.3,0,15,6.7,15,15
	S352.8,384.5,344.5,384.5z M344.5,324.5h-20c-8.3,0-15-6.7-15-15s6.7-15,15-15h20c8.3,0,15,6.7,15,15S352.8,324.5,344.5,324.5z
	 M424.5,444.5h-20c-8.3,0-15-6.7-15-15s6.7-15,15-15h20c8.3,0,15,6.7,15,15S432.8,444.5,424.5,444.5z M424.5,384.5h-20
	c-8.3,0-15-6.7-15-15s6.7-15,15-15h20c8.3,0,15,6.7,15,15S432.8,384.5,424.5,384.5z M424.5,324.5h-20c-8.3,0-15-6.7-15-15
	s6.7-15,15-15h20c8.3,0,15,6.7,15,15S432.8,324.5,424.5,324.5z" fill="#333"/>
<path d="M87,227H40c-22.1,0-40,17.9-40,40v205c0,22.1,17.9,40,40,40h47c22.1,0,40-17.9,40-40V267C127,244.9,109.1,227,87,227z" fill="#333"/>
</svg>
